<?xml version="1.0" encoding="iso-8859-1"?>
<!-- Uploaded to: SVG Repo, www.svgrepo.com, Generator: SVG Repo Mixer Tools -->
<svg fill="#000000" height="800px" width="800px" version="1.1" id="Layer_1" xmlns="http://www.w3.org/2000/svg" xmlns:xlink="http://www.w3.org/1999/xlink" 
	 viewBox="0 0 512 512" xml:space="preserve">
<g>
	<g>
		<path d="M503.467,242.961h-8.533c0-37.222-17.067-66.048-50.714-85.683c-36.898-21.521-82.628-21.641-119.646-0.427l-28.629,10.82
			c-25.754,9.66-54.11,9.668-79.863,0.009l-28.655-10.829c-37.018-21.214-82.748-21.094-119.646,0.427
			c-32.23,18.799-50.714,50.031-50.714,85.683H8.533c-4.719,0-8.533,3.823-8.533,8.533c0,4.719,3.814,8.533,8.533,8.533h8.533v8.986
			c0,56.218,45.73,101.948,101.948,101.948c63.232,0,115.063-49.041,119.484-110.933h35.004
			c4.42,61.892,56.252,110.933,119.484,110.933c56.218,0,101.948-45.73,101.948-101.948v-8.986h8.533
			c4.719,0,8.533-3.814,8.533-8.533C512,246.784,508.186,242.961,503.467,242.961z M93.585,201.498
			c-15.616,9.114-25.318,26.001-25.318,44.083c0,4.71-3.814,8.533-8.533,8.533s-8.533-3.823-8.533-8.533
			c0-24.124,12.945-46.66,33.783-58.82c4.079-2.372,9.301-0.998,11.665,3.072C99.029,193.903,97.655,199.126,93.585,201.498z
			 M273.067,242.961h-34.133c0-20.591-6.34-39.603-17.758-55.706c11.392,3.149,23.1,4.727,34.816,4.727
			c11.716,0,23.433-1.579,34.833-4.727C279.407,203.35,273.067,222.37,273.067,242.961z"/>
	</g>
</g>
</svg>